<?xml version="1.0" standalone="no"?>
<!DOCTYPE svg PUBLIC "-//W3C//DTD SVG 20010904//EN"
 "http://www.w3.org/TR/2001/REC-SVG-20010904/DTD/svg10.dtd">
<svg version="1.0" xmlns="http://www.w3.org/2000/svg"
 width="506.000000pt" height="506.000000pt" viewBox="0 0 506.000000 506.000000"
 preserveAspectRatio="xMidYMid meet">
<metadata>
Created by potrace 1.11, written by Peter Selinger 2001-2013
</metadata>
<g transform="translate(0.000000,506.000000) scale(0.100000,-0.100000)"
fill="#000000" stroke="none">
<path d="M2340 5047 c-3 -3 -36 -8 -75 -11 -104 -10 -129 -14 -244 -37 -637
-129 -1224 -525 -1585 -1069 -193 -291 -328 -619 -382 -930 -2 -14 -6 -34 -9
-45 -4 -22 -12 -74 -25 -185 -15 -125 -4 -478 19 -620 11 -69 22 -134 25 -145
2 -11 12 -51 21 -89 36 -154 135 -413 212 -555 129 -239 257 -413 438 -596
166 -168 291 -268 485 -387 406 -249 836 -367 1330 -365 112 0 223 4 245 8 22
4 60 10 85 13 106 14 131 19 250 48 870 210 1575 888 1824 1755 34 117 70 295
81 403 3 30 8 73 10 95 6 49 6 349 0 390 -2 17 -6 53 -9 80 -10 97 -18 149
-21 155 -2 4 -7 29 -11 56 -19 143 -111 415 -205 609 -72 148 -87 175 -174
305 -270 406 -663 731 -1116 923 -184 79 -441 150 -622 173 -23 3 -53 8 -67
11 -32 6 -474 15 -480 10z m465 -301 c172 -27 175 -28 281 -55 810 -208 1440
-860 1624 -1681 10 -47 21 -105 25 -130 3 -25 8 -61 10 -80 14 -96 21 -380 11
-440 -2 -14 -7 -54 -10 -90 -26 -275 -135 -600 -292 -867 -48 -82 -145 -225
-164 -243 -3 -3 -23 -27 -44 -55 -114 -145 -374 -371 -542 -471 -94 -57 -217
-123 -229 -124 -5 0 137 147 316 328 395 397 478 501 605 752 114 228 177 438
214 720 8 66 6 437 -3 476 -3 12 -8 39 -11 60 -3 22 -8 50 -11 64 -2 14 -6 36
-9 50 -15 87 -78 290 -117 373 -27 58 -112 88 -178 61 -90 -36 -109 -109 -62
-238 30 -83 73 -244 85 -316 18 -112 21 -151 21 -305 0 -93 -3 -195 -7 -225
-25 -192 -87 -399 -168 -565 -124 -252 -183 -322 -770 -909 l-515 -515 -60 -6
c-33 -3 -88 -8 -121 -10 l-61 -5 -6 46 c-9 84 -74 139 -154 131 -46 -5 -59
-13 -157 -101 l-66 -59 -77 13 c-122 19 -124 21 -62 60 70 44 1036 1003 1055
1047 18 42 18 77 -2 119 -34 71 -123 100 -194 64 -19 -10 -237 -222 -485 -470
-247 -249 -482 -476 -520 -505 -73 -54 -147 -95 -249 -135 -57 -23 -60 -23
-104 -6 -25 9 -76 33 -112 54 -61 35 -63 37 -35 40 62 5 184 33 212 47 15 8
33 15 38 15 6 0 46 21 90 46 71 41 146 112 698 663 340 339 625 629 634 645
26 50 16 124 -21 161 -45 45 -118 60 -167 35 -13 -7 -298 -286 -634 -620 -366
-364 -628 -618 -655 -633 -91 -52 -160 -70 -270 -69 -267 3 -469 200 -495 482
-3 35 -14 78 -23 94 -54 93 -194 89 -248 -7 l-20 -37 -62 124 c-34 68 -62 127
-62 131 0 4 11 16 25 27 13 10 39 49 56 86 75 159 97 183 728 814 460 461 609
617 620 646 41 110 -63 218 -177 184 -51 -16 -1256 -1223 -1323 -1325 l-44
-69 -7 34 c-15 66 -18 84 -23 133 l-6 50 266 265 c282 281 295 300 279 373
-18 83 -87 126 -174 110 -28 -5 -69 -39 -212 -181 l-178 -175 4 39 c3 21 7 71
11 109 l7 70 483 485 c429 431 484 489 491 523 19 107 -66 192 -174 172 -32
-6 -79 -48 -325 -293 -158 -158 -287 -283 -287 -278 0 10 71 140 123 226 135
222 335 442 552 607 319 243 725 406 1095 439 36 4 67 8 69 10 7 6 410 -3 456
-10z"/>
<path d="M2250 4600 c-174 -27 -184 -29 -304 -65 -124 -37 -225 -76 -336 -130
-230 -112 -293 -167 -292 -250 2 -57 25 -97 72 -124 62 -35 106 -27 199 33
154 99 425 205 597 232 21 3 41 7 44 9 30 18 406 27 524 12 483 -61 931 -324
1224 -719 82 -110 96 -123 142 -136 67 -18 125 7 160 71 42 74 23 123 -118
302 -52 66 -237 256 -292 300 -177 142 -326 233 -530 323 -115 51 -362 120
-490 137 -30 5 -66 10 -80 12 -14 3 -110 6 -215 8 -144 2 -218 -2 -305 -15z"/>
<path d="M2368 4175 c-2 -1 -30 -6 -63 -9 -33 -4 -76 -11 -95 -16 -19 -5 -50
-12 -68 -15 -146 -25 -426 -151 -582 -262 -110 -79 -669 -624 -694 -678 -56
-118 58 -240 181 -194 15 5 154 135 308 288 154 153 317 305 361 338 154 113
338 193 549 239 82 18 320 26 435 14 71 -7 115 6 149 46 17 19 32 42 32 52 1
9 3 28 4 41 7 65 -55 132 -135 146 -43 8 -375 16 -382 10z"/>
<path d="M3044 4059 c-62 -18 -110 -103 -93 -163 15 -54 42 -80 125 -121 121
-61 192 -103 264 -157 326 -246 523 -610 546 -1008 7 -120 12 -144 35 -174 67
-86 201 -71 245 26 23 52 14 232 -22 408 -97 471 -423 897 -864 1127 -136 70
-173 80 -236 62z"/>
<path d="M2448 3755 c-2 -2 -32 -6 -69 -9 -36 -3 -72 -7 -80 -10 -7 -3 -27 -8
-43 -10 -42 -7 -156 -45 -195 -64 -125 -62 -95 -254 42 -269 31 -4 65 2 119
21 332 114 674 41 957 -206 60 -53 103 -66 161 -49 74 22 114 103 91 181 -18
59 -150 174 -296 256 -134 76 -293 131 -435 149 -52 7 -247 15 -252 10z"/>
<path d="M2461 3328 c-130 -11 -282 -68 -391 -147 -53 -38 -1249 -1232 -1266
-1263 -60 -114 50 -244 171 -202 30 10 176 150 649 622 336 335 627 618 646
630 19 11 58 29 86 41 50 19 77 25 177 36 88 10 133 47 147 123 4 27 1 50 -11
79 -31 73 -82 93 -208 81z"/>
<path d="M2955 3134 c-22 -7 -52 -27 -67 -44 -51 -61 -41 -137 28 -215 75 -85
117 -187 128 -312 3 -34 12 -75 20 -92 53 -101 199 -100 253 2 40 76 2 295
-75 437 -99 182 -194 256 -287 224z"/>
<path d="M3463 3060 c-73 -44 -87 -109 -48 -225 48 -141 64 -322 40 -460 -29
-171 -109 -335 -239 -484 -81 -93 -87 -160 -20 -226 72 -72 153 -58 244 43
147 162 249 366 296 592 24 115 24 343 0 460 -23 112 -64 235 -89 267 -41 52
-127 68 -184 33z"/>
<path d="M2518 2895 c-2 -1 -24 -5 -50 -8 -105 -13 -116 -22 -741 -646 -324
-322 -601 -604 -616 -626 -47 -68 -66 -132 -64 -215 1 -88 20 -144 67 -209 98
-133 270 -181 431 -121 57 21 89 51 658 619 329 328 611 614 627 636 86 124
83 300 -9 421 -45 60 -130 119 -191 133 -54 12 -107 20 -112 16z m71 -324 c10
-14 17 -37 14 -51 -2 -17 -183 -205 -576 -598 -314 -315 -580 -578 -590 -583
-48 -27 -115 29 -102 84 8 29 1153 1174 1180 1179 32 6 54 -3 74 -31z"/>
<path d="M3943 2303 c-32 -6 -80 -66 -93 -115 -41 -155 -106 -299 -196 -436
-47 -71 -147 -177 -533 -565 -262 -262 -484 -492 -493 -509 -45 -82 6 -187 99
-204 78 -15 79 -14 584 493 261 263 491 498 511 523 110 140 206 318 267 495
69 198 65 245 -28 307 -24 17 -68 21 -118 11z"/>
</g>
</svg>
